HIERARCHY
ROOT SpineBase
{
  OFFSET 0.000000 0.000000 0.000000
  CHANNELS 6 Xposition Yposition Zposition Zrotation Xrotation Yrotation
  JOINT SpineMid
  {
    OFFSET 0.000000 28.124963 0.000000
    CHANNELS 3 Zrotation Xrotation Yrotation
    JOINT SpineShoulder
    {
      OFFSET 0.187089 20.924529 -0.551961
      CHANNELS 3 Zrotation Xrotation Yrotation
      JOINT Neck
      {
        OFFSET 0.167766 6.936851 -0.426443
        CHANNELS 3 Zrotation Xrotation Yrotation
        JOINT Head
        {
          OFFSET 1.029541 11.919382 0.035990
          CHANNELS 3 Zrotation Xrotation Yrotation
          End Site
          {
            OFFSET 0 0 0
          }
        }
      }
      JOINT ShoulderLeft
      {
        OFFSET -4.045012 -3.521713 -12.575977
        CHANNELS 3 Zrotation Xrotation Yrotation
        JOINT ElbowLeft
        {
          OFFSET -0.552904 -20.439837 -4.347121
          CHANNELS 3 Zrotation Xrotation Yrotation
          JOINT WristLeft
          {
            OFFSET 11.186018 -17.120314 3.496277
            CHANNELS 3 Zrotation Xrotation Yrotation
            JOINT HandLeft
            {
              OFFSET -0.175178 -4.355658 5.922567
              CHANNELS 3 Zrotation Xrotation Yrotation
              JOINT HandTipLeft
              {
                OFFSET 3.871198 -5.124697 4.149895
                CHANNELS 3 Zrotation Xrotation Yrotation
                End Site
                {
                  OFFSET 0 0 0
                }
              }
              JOINT ThumbLeft
              {
                OFFSET -3.262576 -4.113406 -4.938120
                CHANNELS 3 Zrotation Xrotation Yrotation
                End Site
                {
                  OFFSET 0 0 0
                }
              }
            }
          }
        }
      }
      JOINT ShoulderRight
      {
        OFFSET 8.048083 -4.930834 4.673753
        CHANNELS 3 Zrotation Xrotation Yrotation
        JOINT ElbowRight
        {
          OFFSET 3.658094 -27.927068 -0.030709
          CHANNELS 3 Zrotation Xrotation Yrotation
          JOINT WristRight
          {
            OFFSET 2.649763 -18.899273 -9.002720
            CHANNELS 3 Zrotation Xrotation Yrotation
            JOINT HandRight
            {
              OFFSET 1.108815 -7.302894 -3.178980
              CHANNELS 3 Zrotation Xrotation Yrotation
              JOINT HandTipRight
              {
                OFFSET 1.933111 0.333003 -2.109764
                CHANNELS 3 Zrotation Xrotation Yrotation
                End Site
                {
                  OFFSET 0 0 0
                }
              }
              JOINT ThumbRight
              {
                OFFSET 3.978133 1.106293 -4.616079
                CHANNELS 3 Zrotation Xrotation Yrotation
                End Site
                {
                  OFFSET 0 0 0
                }
              }
            }
          }
        }
      }
    }
  }
  JOINT HipLeft
  {
    OFFSET -2.256835 0.746655 -6.876855
    CHANNELS 3 Zrotation Xrotation Yrotation
    JOINT KneeLeft
    {
      OFFSET -2.502460 -29.412142 1.526938
      CHANNELS 3 Zrotation Xrotation Yrotation
      JOINT AnkleLeft
      {
        OFFSET -5.680615 -32.492528 6.064796
        CHANNELS 3 Zrotation Xrotation Yrotation
        JOINT FootLeft
        {
          OFFSET 4.691509 -5.103987 1.061991
          CHANNELS 3 Zrotation Xrotation Yrotation
          End Site
          {
            OFFSET 0 0 0
          }
        }
      }
    }
  }
  JOINT HipRight
  {
    OFFSET 4.591207 0.149430 1.055555
    CHANNELS 3 Zrotation Xrotation Yrotation
    JOINT KneeRight
    {
      OFFSET -2.906605 -27.608131 5.283733
      CHANNELS 3 Zrotation Xrotation Yrotation
      JOINT AnkleRight
      {
        OFFSET -7.087706 -31.868938 5.070046
        CHANNELS 3 Zrotation Xrotation Yrotation
        JOINT FootRight
        {
          OFFSET -0.481150 -6.304043 -6.720277
          CHANNELS 3 Zrotation Xrotation Yrotation
          End Site
          {
            OFFSET 0 0 0
          }
        }
      }
    }
  }
}
MOTION
Frames: 14
Frame Time: 0.033333
-20.409756 68.288294 371.149227 1.115759 0.587789 -42.371743 0.786048 -0.058401 42.418364 0.353315 -0.522864 0.101557 2.195067 9.739141 -1.319531 0.000000 0.000000 0.000000 -26.124903 -7.566941 3.824263 -28.540356 20.149584 2.736871 43.327786 50.578463 3.626972 -39.586550 -24.861643 -46.583218 0.000000 0.000000 0.000000 0.000000 0.000000 0.000000 17.557140 -22.953919 0.649012 20.176910 14.011577 -26.108145 -2.763783 2.887640 2.107266 -61.572416 -34.192192 -5.557313 0.000000 0.000000 0.000000 0.000000 0.000000 0.000000 18.564715 24.063060 39.518867 -55.279798 -21.003035 -9.723290 34.166249 56.032263 29.236161 0.000000 0.000000 0.000000 -11.218488 12.598738 41.834692 30.777037 -2.578294 9.940915 1.644414 -10.441645 -36.395014 0.000000 0.000000 0.000000
-17.293345 68.365808 369.355557 2.017667 1.579949 -43.985456 0.898964 -0.228219 44.039098 0.358687 -0.529938 0.126628 1.749025 9.758464 -1.446374 0.000000 0.000000 0.000000 -23.984451 -8.077433 3.048978 -32.153396 19.844756 3.734331 45.509636 51.424031 14.313272 -44.221243 -13.614281 -54.942994 0.000000 0.000000 0.000000 0.000000 0.000000 0.000000 14.290613 -23.769919 0.351323 18.880190 13.938437 -23.643838 -1.287839 -0.836992 2.266106 -58.624024 -32.284089 -0.568247 0.000000 0.000000 0.000000 0.000000 0.000000 0.000000 17.568259 20.849502 42.128326 -53.676708 -19.885579 -8.727629 39.986284 56.204261 25.841931 0.000000 0.000000 0.000000 -11.220367 15.203740 43.871906 19.060205 -15.145948 10.773002 11.697209 -6.285697 -39.101725 0.000000 0.000000 0.000000
-14.209761 68.406945 368.391812 3.385002 1.595951 -46.247945 0.407336 0.027131 46.298516 0.183356 -0.543058 0.154406 -0.203699 9.135989 -1.386452 0.000000 0.000000 0.000000 -20.752407 -7.831272 2.301305 -34.739288 19.038912 4.760826 45.738668 50.513587 19.326982 -43.539670 -10.112523 -51.654947 0.000000 0.000000 0.000000 0.000000 0.000000 0.000000 12.029856 -23.619867 0.152938 13.375651 12.436130 -18.399117 -3.387629 3.821329 2.276991 -57.449487 -35.800764 -5.601485 0.000000 0.000000 0.000000 0.000000 0.000000 0.000000 12.591236 16.884716 45.431747 -49.677401 -21.285935 -8.501300 38.651947 56.563244 25.275754 0.000000 0.000000 0.000000 -11.738724 16.570610 46.495058 9.306186 -19.821317 7.787256 19.218779 -3.715055 -39.800980 0.000000 0.000000 0.000000
-12.801086 68.879823 367.169648 2.666295 2.134058 -45.369281 0.415777 -0.268343 45.392021 0.194331 -0.571144 0.115487 2.944438 9.338297 -1.538583 0.000000 0.000000 0.000000 -13.968894 -6.990760 1.555845 -37.100899 17.312633 5.217355 45.022788 46.611091 19.856123 -38.609017 -7.243790 -36.592514 0.000000 0.000000 0.000000 0.000000 0.000000 0.000000 11.716285 -23.715213 0.028131 7.248553 9.944472 -12.927229 -12.390003 9.662667 7.322943 -46.093142 -36.885103 -6.471963 0.000000 0.000000 0.000000 0.000000 0.000000 0.000000 13.251102 14.571652 44.874218 -46.529163 -21.715744 -7.329347 34.363951 57.262734 26.207622 0.000000 0.000000 0.000000 -5.011550 17.335455 46.236987 -0.834376 -15.710216 2.289066 20.896716 -14.566126 -34.320210 0.000000 0.000000 0.000000
-11.743513 69.113403 366.156082 1.450065 2.705566 -46.690962 0.870821 -0.409673 46.708612 0.112197 -0.460598 0.061448 7.599590 9.270955 -1.722911 0.000000 0.000000 0.000000 -8.589378 -6.280249 1.020206 -35.173862 16.929070 6.913160 43.444514 39.457419 21.395861 -33.398571 -3.785514 -25.222774 0.000000 0.000000 0.000000 0.000000 0.000000 0.000000 12.485319 -23.588262 0.098554 -0.466948 6.648074 -6.918560 -14.978430 11.742695 10.199514 -38.084069 -39.028326 -3.008036 0.000000 0.000000 0.000000 0.000000 0.000000 0.000000 14.851225 12.926209 46.488812 -42.488828 -20.964979 -5.283696 28.749191 58.202585 28.071290 0.000000 0.000000 0.000000 2.329831 14.273434 48.030916 -6.354619 -3.497755 -2.303902 23.055796 -29.176236 -25.880110 0.000000 0.000000 0.000000
-10.115630 69.160216 365.671331 0.763674 2.504876 -44.869223 1.073024 0.222187 44.901816 -0.188116 -0.355464 0.028547 9.622735 8.494637 -1.670335 0.000000 0.000000 0.000000 -2.396066 -5.188096 0.163007 -34.049358 16.266409 8.856205 39.234808 37.884702 21.674023 -30.406179 -7.950293 -21.583562 0.000000 0.000000 0.000000 0.000000 0.000000 0.000000 12.749978 -23.631250 0.159300 -7.118591 3.491087 -2.050624 -13.660635 12.787246 10.599045 -30.011976 -40.860798 5.234771 0.000000 0.000000 0.000000 0.000000 0.000000 0.000000 13.755334 10.661938 44.869910 -36.482023 -22.546830 -3.888842 26.150746 61.185673 28.786302 0.000000 0.000000 0.000000 9.122384 13.949138 46.774044 -14.331226 4.926920 -5.436835 27.819722 -35.212113 -19.402182 0.000000 0.000000 0.000000
-8.624103 69.079246 365.936541 0.115268 1.398881 -40.204235 1.104194 0.413324 40.236176 -0.437548 -0.285495 0.005908 12.606538 9.677547 -2.053002 0.000000 0.000000 0.000000 4.380301 -2.553600 -0.943021 -31.536601 15.630306 11.000457 32.474171 36.156588 15.246108 -27.924208 -11.999892 -16.314728 0.000000 0.000000 0.000000 0.000000 0.000000 0.000000 13.024152 -23.171434 -0.100396 -12.088326 0.839079 1.636327 -6.548628 14.497872 6.543448 -23.867374 -41.037198 17.175555 0.000000 0.000000 0.000000 0.000000 0.000000 0.000000 11.356304 9.812945 40.062225 -29.666180 -23.707099 -2.672418 21.640322 59.645299 28.204465 0.000000 0.000000 0.000000 15.077690 14.103016 42.367692 -20.953623 10.185304 -6.765177 34.339543 -39.163323 -17.902844 0.000000 0.000000 0.000000
-7.210480 69.159072 366.588076 -0.220025 0.105603 -39.655812 1.089081 0.480410 39.678244 -0.924934 0.219943 -0.024590 14.666172 10.513290 -2.336943 0.000000 0.000000 0.000000 11.158165 -0.398868 -2.338469 -27.303030 15.697301 13.498068 24.787396 36.546273 7.530105 -24.197297 -20.868289 -10.858729 0.000000 0.000000 0.000000 0.000000 0.000000 0.000000 13.898116 -22.622030 -0.220582 -15.101078 -0.710837 3.668777 -1.830604 13.446551 3.233102 -17.890110 -38.332407 27.928676 0.000000 0.000000 0.000000 0.000000 0.000000 0.000000 7.881799 9.217140 39.457444 -22.210257 -22.714380 -1.164640 17.813875 54.218116 25.249116 0.000000 0.000000 0.000000 18.006177 16.084201 41.668580 -26.069417 11.843336 -7.272657 35.717383 -40.654771 -15.864266 0.000000 0.000000 0.000000
-5.738437 68.869879 367.303838 -0.136780 -1.376122 -36.287777 0.997010 0.704436 36.306406 -0.511044 -0.314704 0.043326 13.945494 12.602137 -2.913333 0.000000 0.000000 0.000000 15.558248 2.653524 -4.169878 -23.299336 15.679856 15.474697 20.501730 38.654979 10.476262 -26.012149 -22.349981 -14.525683 0.000000 0.000000 0.000000 0.000000 0.000000 0.000000 13.275170 -20.916944 -0.707927 -16.633461 -1.782189 4.604811 2.480879 13.802872 0.166945 -15.007108 -35.050559 34.683743 0.000000 0.000000 0.000000 0.000000 0.000000 0.000000 5.673749 9.874063 35.931237 -17.090983 -20.370357 -0.172580 14.485896 44.988826 20.710471 0.000000 0.000000 0.000000 19.496684 16.153124 38.066320 -28.033088 11.781728 -7.141609 37.195880 -32.426040 -20.745355 0.000000 0.000000 0.000000
-4.449948 68.614312 368.112419 0.092322 -2.829659 -33.823502 0.753557 0.702766 33.848992 -0.423695 -0.300267 0.072333 11.965102 13.939568 -2.987852 0.000000 0.000000 0.000000 18.582707 4.587360 -5.553043 -19.631877 16.410701 17.139165 18.664833 36.446047 23.548566 -31.306307 -13.793094 -28.096742 0.000000 0.000000 0.000000 0.000000 0.000000 0.000000 13.000023 -19.693957 -1.061639 -16.456167 -1.686310 4.504530 6.136746 12.047148 -2.880729 -14.736845 -31.077149 39.916258 0.000000 0.000000 0.000000 0.000000 0.000000 0.000000 3.749645 11.266677 33.326082 -12.972720 -16.951884 0.409598 11.705601 32.246324 14.586034 0.000000 0.000000 0.000000 16.889265 16.806885 35.085711 -25.394487 6.906443 -6.419599 33.256799 -23.665169 -24.036411 0.000000 0.000000 0.000000
-2.537794 68.693637 368.810607 0.746490 -4.212185 -32.316495 0.835155 0.898772 32.377546 0.170637 -0.290423 0.144032 8.756430 15.745572 -3.105326 0.000000 0.000000 0.000000 21.048211 6.669019 -7.406405 -18.439361 16.080450 18.381711 15.397714 37.105088 21.272284 -31.646912 -18.723761 -27.970975 0.000000 0.000000 0.000000 0.000000 0.000000 0.000000 11.470838 -18.505997 -1.426627 -16.096414 -1.392976 4.269005 9.944912 10.179081 -5.966274 -17.567771 -29.594190 42.121840 0.000000 0.000000 0.000000 0.000000 0.000000 0.000000 0.518781 11.929501 31.887053 -9.400605 -12.186797 0.238549 11.244626 17.981191 9.087041 0.000000 0.000000 0.000000 8.915982 16.942556 33.109828 -15.962641 -2.663113 -3.681509 26.613314 -15.132798 -28.045654 0.000000 0.000000 0.000000
-0.858405 68.927188 369.413512 1.426002 -5.379528 -31.110349 0.161253 0.634261 31.242638 0.468119 -0.259564 0.161210 7.790453 16.566000 -3.129301 0.000000 0.000000 0.000000 23.515058 8.121024 -8.839148 -16.923480 16.408470 19.546802 14.137645 33.702169 29.480900 -33.308803 -14.455706 -34.354231 0.000000 0.000000 0.000000 0.000000 0.000000 0.000000 11.128270 -17.544762 -1.682321 -16.019872 -1.265826 4.234462 12.331944 6.629157 -8.121412 -19.979868 -29.093248 44.149586 0.000000 0.000000 0.000000 0.000000 0.000000 0.000000 -2.795913 13.120714 30.811668 -5.831332 -8.793492 0.202418 10.327565 5.039172 4.269342 0.000000 0.000000 0.000000 4.625035 16.356578 31.784764 -10.090511 -6.633159 -1.548532 24.404878 -5.398214 -31.444202 0.000000 0.000000 0.000000
0.566159 68.908124 370.149008 1.832925 -6.561444 -32.031071 -0.543461 0.697374 32.227125 0.564941 -0.329108 0.168363 7.504910 16.611288 -3.068017 0.000000 0.000000 0.000000 25.915334 9.285457 -10.137747 -15.696855 15.585598 19.872559 13.426803 31.404247 36.690814 -33.010949 -11.686752 -37.140660 0.000000 0.000000 0.000000 0.000000 0.000000 0.000000 11.114476 -16.737483 -1.888546 -15.772574 -1.024478 4.085308 9.474014 8.589641 -5.810006 -18.463527 -30.236901 41.560645 0.000000 0.000000 0.000000 0.000000 0.000000 0.000000 -6.197679 13.939324 32.005980 -3.197517 -6.904584 0.194388 2.333465 -5.535731 -2.539553 0.000000 0.000000 0.000000 0.994625 16.733785 32.688062 -6.457122 -8.984256 -0.171221 22.365296 -0.705830 -31.871417 0.000000 0.000000 0.000000
0.869540 69.212253 369.660555 0.912776 -5.951772 -33.981912 -0.356555 -0.069253 34.112474 0.377456 -0.434143 0.126501 9.739500 16.202696 -3.168560 0.000000 0.000000 0.000000 27.930689 9.724766 -10.540123 -13.455048 14.465249 19.547168 12.638957 29.371920 40.280873 -29.384061 -12.449498 -33.768990 0.000000 0.000000 0.000000 0.000000 0.000000 0.000000 12.436856 -16.517007 -1.935926 -15.816010 -1.059332 4.119954 9.561563 8.662677 -5.864184 -18.467127 -30.290671 41.594621 0.000000 0.000000 0.000000 0.000000 0.000000 0.000000 -4.049504 13.132233 33.822402 -2.087032 -4.337037 0.360015 -5.025847 -8.931915 -6.406689 0.000000 0.000000 0.000000 2.945368 15.754446 34.706379 -6.570057 -7.546675 -0.282859 20.244446 -1.275685 -30.198969 0.000000 0.000000 0.000000
